<svg width="32" height="32" viewBox="0 0 32 32" fill="none" xmlns="http://www.w3.org/2000/svg">
  <rect width="32" height="32" rx="8" fill="#2563eb"/>
  <path d="M16 6C17.1046 6 18 6.89543 18 8V10H20C21.1046 10 22 10.8954 22 12V14H24C25.1046 14 26 14.8954 26 16C26 17.1046 25.1046 18 24 18H22V20C22 21.1046 21.1046 22 20 22H18V24C18 25.1046 17.1046 26 16 26C14.8954 26 14 25.1046 14 24V22H12C10.8954 22 10 21.1046 10 20V18H8C6.89543 18 6 17.1046 6 16C6 14.8954 6.89543 14 8 14H10V12C10 10.8954 10.8954 10 12 10H14V8C14 6.89543 14.8954 6 16 6Z" fill="white"/>
</svg>